<svg class="site-logo" width="240" height="40" viewBox="0 0 240 40" fill="none" xmlns="http://www.w3.org/2000/svg">
        <path d="M11.8947 0C12.1003 0 11.9564 0.792791 11.7179 1.49521C11.5292 1.94567 11.2848 2.37071 10.9902 2.76039C10.7065 3.22456 10.3735 3.55729 10.0733 3.96395C9.86775 4.23917 9.49359 4.69924 9.27979 5.02375C8.95087 5.52078 8.67539 5.96442 8.43281 6.39162C8.22312 6.7531 7.87364 7.42266 7.67218 7.8704C7.47071 8.31814 7.19112 9.01235 7.37614 9.61618C7.65573 10.5363 8.25602 10.1995 9.05777 10.1214C9.58816 10.068 10.1843 9.57921 10.7024 9.21363C12.2977 8.07579 12.051 7.57054 12.347 7.72663C12.5403 7.80878 12.1908 8.60568 11.9359 9.04521C11.6852 9.48703 11.366 9.88633 10.9902 10.2282C10.7353 10.4911 10.1967 10.8033 9.87186 11.0498C9.42038 11.3386 8.99154 11.6613 8.58905 12.0151C8.16979 12.3846 7.82509 12.8308 7.5735 13.3296C7.33092 13.9129 7.42137 14.4756 7.38026 15.1164C7.38725 15.7469 7.43118 16.3765 7.51183 17.0019C7.51183 17.5811 7.4666 18.0781 7.51183 18.5464C7.55705 19.0147 7.61461 19.5733 7.70918 20.132C7.79272 20.6632 7.91502 21.1877 8.07511 21.7011C8.23763 22.1216 8.42292 22.533 8.63017 22.9334C8.7864 23.252 8.96216 23.5607 9.15645 23.8577C9.41547 24.2684 9.60872 24.5724 9.80607 24.8394C9.95409 25.0407 10.2583 25.3611 10.5174 25.661C10.8298 26.0471 11.0519 26.3346 11.426 26.7741C11.8002 27.2137 12.2483 27.6902 12.7376 28.2365C13.2269 28.7828 13.6093 29.2634 14.0369 29.744C14.4645 30.2246 14.888 30.6724 15.1922 31.0215C16.2818 32.2539 16.4257 32.1429 16.5984 31.6952C16.755 31.0709 16.8704 30.4369 16.9437 29.7974C16.9848 29.5428 17.248 28.9759 17.4453 29.0005C17.6427 29.0252 17.5111 29.5633 17.5563 30.0521C17.6016 30.5409 17.5152 30.8737 17.5563 31.2844C17.5651 31.7106 17.5994 32.1358 17.6591 32.5578C17.6817 32.9631 17.7577 33.3637 17.8853 33.7491C18.0703 34.2713 18.3398 34.7598 18.6829 35.195C19.1189 35.6563 19.6138 36.0582 20.1549 36.3903C21.7995 37.4953 21.4993 36.5834 21.9968 37.0517C22.334 37.3762 22.2805 37.7253 21.9968 38.4812C21.9968 38.4812 21.3184 39.43 21.1745 39.6683C20.6688 40.4323 20.0685 39.6683 19.9986 39.4342C19.6253 39.1127 19.2219 38.8279 18.7939 38.5839C18.448 38.3554 18.0751 38.1705 17.6838 38.0334C17.207 37.8994 16.7181 37.8128 16.2242 37.7746C15.8829 37.7295 15.3608 37.8321 14.9907 37.8034C14.485 37.7664 14.0533 37.6802 13.5476 37.6185C13.1364 37.5692 12.7541 37.5117 12.2689 37.4419C11.7837 37.3721 11.2903 37.2817 10.7682 37.2119C10.246 37.142 9.75262 37.1626 9.23046 37.0517C8.7803 37.0028 8.33569 36.912 7.90242 36.7806C7.45012 36.5465 7.03456 36.2476 6.66896 35.8933C6.19978 35.4849 5.77404 35.0293 5.39849 34.5336C4.88043 33.519 5.75619 34.279 6.32359 34.6404C6.87369 35.0169 7.46558 35.3284 8.08744 35.5688C8.84107 35.7788 9.61641 35.9015 10.3981 35.9344C11.1053 36.0165 11.7138 36.0371 12.31 36.0617C12.992 36.1439 13.6794 36.1714 14.3658 36.1439C15.3361 35.9631 15.7185 36.2219 15.221 35.273C15.0319 34.9074 14.4645 34.0407 14.2465 33.7039C13.9382 33.2479 13.3913 32.7427 13.1611 32.4716C12.7499 31.9622 12.3141 31.3337 11.9276 30.8983C11.4342 30.3314 10.9162 29.7481 10.4475 29.2552C10.0815 28.8691 9.6745 28.3679 9.32913 28.064C8.85649 27.628 8.34602 27.2349 7.80375 26.8892C7.28158 26.5647 6.75119 26.3757 6.24136 26.121C5.73152 25.8663 5.21758 25.6199 4.70775 25.394C4.41171 25.2625 3.84432 25.0736 3.5154 24.9051C2.93567 24.6176 2.48751 24.5519 1.97767 24.1082C1.51878 23.7106 1.1321 23.2367 0.834663 22.7075C0.596742 22.2598 0.417117 21.7836 0.300161 21.2903C0.0997653 20.6763 -0.00154915 20.0343 1.79033e-05 19.3885C0.0176426 18.8289 0.118806 18.2751 0.300161 17.7454L0.365946 17.7125H0.419396C0.419396 17.7125 0.419396 17.7413 0.444066 17.7372C0.58797 18.2629 0.731874 18.8955 0.82644 19.446C0.87658 20.0811 1.06759 20.6971 1.38561 21.2493C1.76382 21.7362 2.22441 22.1533 2.74654 22.4816C3.21114 22.7773 3.90188 23.262 4.44872 23.2662C5.63285 23.2662 5.77264 23.603 5.77675 22.6171C5.77675 22.2064 5.61229 21.3848 5.59173 20.974C5.56295 20.4729 5.49716 20.0005 5.44783 19.4829C5.39849 18.9654 5.38615 18.3451 5.35326 17.8398C5.32037 17.2648 5.29159 16.6815 5.25869 16.0982C5.2258 15.5149 5.1888 14.985 5.16413 14.4551C5.13946 13.9252 5.09012 13.2844 5.08601 12.812C5.0819 12.3396 5.02022 11.8467 5.05723 11.3291C5.10246 10.7253 5.23402 10.1995 5.32037 9.68602C5.40189 9.18116 5.50893 8.68075 5.64107 8.1867C5.74759 7.70868 5.88492 7.23805 6.05222 6.77775C6.31882 6.19761 6.64541 5.64692 7.02666 5.13466C7.36471 4.72432 7.72429 4.33216 8.10389 3.95985C8.34236 3.70928 8.65073 3.54907 8.9961 3.18759C9.43603 2.74807 9.92942 2.22228 10.2912 1.81151C10.6531 1.40073 11.1135 0.989961 11.389 0.636697C11.6028 0.451849 11.6316 0 11.8947 0Z" fill="#231F20"></path>
        <path d="M36.2105 37.8445C35.6559 37.7801 35.0957 37.7801 34.5412 37.8445C33.9275 37.9984 33.3361 38.2303 32.7814 38.5346C32.5224 38.6824 31.548 39.4424 31.293 39.6519C30.442 40.3543 30.4995 39.8983 29.9609 39.1302C29.8047 38.9084 29.2003 37.8116 29.2332 37.4871C29.3277 36.5341 29.8458 37.2776 31.5726 36.1891C32.3164 35.7873 32.9298 35.1816 33.3406 34.4433C33.5609 33.9006 33.7169 33.334 33.8052 32.755C33.8822 32.2492 33.9234 31.7385 33.9286 31.2269C33.9573 30.7217 33.8299 29.0293 34.0231 29.0457C34.5782 29.1114 34.5782 30.6067 34.7467 31.0996C34.9153 31.5925 34.9112 32.5989 35.4909 31.8513C35.676 31.613 36.4325 30.8695 36.6011 30.7052C37.0821 30.2287 37.4604 29.7358 37.9209 29.2182C38.3814 28.7007 38.7802 28.2324 39.1954 27.7559C39.6107 27.2794 39.9931 26.8522 40.3919 26.388C40.6797 26.0512 41.021 25.661 41.3252 25.2707C41.5226 25.016 41.7364 24.7778 41.8803 24.5437C42.0242 24.3095 42.3737 23.7919 42.5669 23.4551C42.7978 23.0837 43.0051 22.6981 43.1878 22.3008C43.3538 21.8527 43.4912 21.3944 43.5989 20.9289C43.7422 20.3669 43.8479 19.796 43.9155 19.22C43.9854 18.5628 43.9155 18.0986 43.9607 17.4455C44.006 16.7924 44.0964 16.1885 44.0923 15.6463C44.1501 15.1111 44.1501 14.5713 44.0923 14.0361C43.9555 13.4846 43.714 12.9645 43.381 12.5039C43.0401 12.1269 42.6518 11.7955 42.2257 11.5181C41.8145 11.1443 41.3376 10.8896 40.8771 10.4747C40.5355 10.2467 40.2185 9.98372 39.9314 9.69012C39.6576 9.28932 39.4156 8.86766 39.2078 8.42905C39.0968 8.18259 38.9446 7.70609 39.142 7.72252C39.4216 7.72252 40.2028 8.80696 40.5358 9.02056C40.947 9.27935 41.3951 9.77228 41.8926 9.92426C42.3038 10.0475 43.1261 10.4993 43.6071 10.2036C44.2938 9.76817 44.0594 9.23416 44.0512 8.51942C44.0512 7.9772 43.5208 7.43498 43.3152 6.99545C43.0857 6.49897 42.8276 6.01619 42.5423 5.54953C42.2339 5.06482 41.8926 4.66227 41.576 4.22274C41.317 3.86126 41.0827 3.59837 40.8277 3.23278C40.5276 2.79325 40.2973 2.48517 39.9684 2.03332C39.5902 1.51575 39.2653 0.00410703 39.5573 0.00410703C39.9396 0.00410703 39.6888 0.492927 40.5194 1.18302C40.9104 1.56019 41.2797 1.95929 41.6254 2.37837C41.9831 2.74396 42.4477 3.2451 42.7561 3.55318C43.0977 3.82559 43.4244 4.11629 43.7346 4.42402C44.113 4.79924 44.4519 5.21216 44.746 5.65634C45.0307 6.12786 45.2689 6.62586 45.4573 7.14333C45.6615 7.70532 45.8223 8.28209 45.9384 8.86858C46.0371 9.27935 46.1111 9.69012 46.1728 10.1009C46.2652 10.7026 46.3269 11.3086 46.3578 11.9165C46.3578 12.3273 46.3249 12.7709 46.3125 13.1488C46.3125 13.7198 46.2632 14.2579 46.2344 14.7919C46.2057 15.3259 46.144 15.9256 46.1152 16.4802C46.0823 17.1128 46.07 17.655 46.0289 18.2342C45.9877 18.8791 45.9672 19.3926 45.9096 19.9718C45.8521 20.5509 45.7863 21.2493 45.6999 21.7874C45.63 22.1981 45.556 23.184 45.8644 23.2662C46.5209 23.3381 47.1847 23.2302 47.7845 22.954C48.3825 22.6384 48.9449 22.2597 49.462 21.8243C49.8399 21.4548 50.1465 21.019 50.3665 20.5386C50.6009 20.0621 50.679 18.8955 50.753 18.6367C50.827 18.378 50.8599 17.4332 51.1354 17.7248C51.4109 18.0165 51.4643 19.4542 51.3615 20.2922C51.2756 21.0071 51.067 21.7019 50.7448 22.346C50.408 23.0598 49.9098 23.6856 49.2893 24.174C48.7959 24.5847 48.0106 24.7614 47.4967 24.9955C46.9827 25.2296 46.4523 25.4597 45.8521 25.739C45.0591 26.0614 44.2897 26.4389 43.5496 26.8686C42.9183 27.2985 42.3266 27.7837 41.7816 28.3187C41.2594 28.828 40.836 29.4195 40.322 29.9987C39.6272 30.7833 39.1214 31.2803 38.4307 32.1224C38.0195 32.6441 37.2383 33.6217 36.7861 34.3447C35.9309 35.6509 35.6143 35.9878 37.004 36.0822C37.8924 36.0879 38.7804 36.0454 39.6642 35.9549C40.4371 35.9097 41.3335 35.8686 42.164 35.7988C43.093 35.7026 43.9832 35.3765 44.7543 34.8499C45.8891 34.0571 46.7566 33.6176 45.8891 34.6774C45.4018 35.2976 44.8505 35.8649 44.2444 36.3698C43.777 36.7174 43.215 36.9151 42.6327 36.9367C41.9543 37.0024 41.243 37.101 40.6098 37.1872C39.9766 37.2735 39.4216 37.3762 38.7843 37.4707C38.2498 37.5487 37.666 37.6391 37.1109 37.7048C36.8601 37.7828 36.4818 37.8404 36.2105 37.8445Z" fill="#231F20"></path>
        <path d="M67.6515 29.551H63.2069C64.6295 28.5939 64.6295 27.7805 64.6295 26.2977V13.2063C64.6295 11.7522 64.6295 10.8814 63.2069 9.95302H66.3728C76.4585 9.95302 79.5298 15.063 79.5298 20.3168C79.538 28.5857 72.1578 29.551 67.6515 29.551ZM66.3728 10.8239V24.8189C66.3728 27.608 66.3728 28.6801 68.9014 28.6801C73.8353 28.6801 77.5604 26.0389 77.5604 20.5222C77.5604 12.4218 71.3437 10.8239 66.3728 10.8239Z" fill="#231F20"></path>
        <path d="M93.2213 29.551C91.7699 29.551 90.7831 29.058 86.7702 24.063L85.2325 22.1489H83.0822V27.0535C83.0822 28.5939 83.2261 28.9143 83.6907 29.551H81.0182C81.4828 28.9143 81.6267 28.5939 81.6267 27.0535V17.084C81.6267 15.5436 81.4828 15.2273 81.0182 14.5865H84.5335C87.5843 14.5865 90.1417 15.7778 90.1417 18.3903C90.1417 20.9165 87.7899 21.6436 86.8278 21.9886L89.5209 25.2995C91.0298 27.189 92.6868 28.6678 93.9655 28.6678C94.1957 28.6678 94.4588 28.6391 94.6932 28.6391C94.7795 28.6391 94.8659 28.6678 94.8659 28.7541C94.8659 29.2018 94.2204 29.551 93.2213 29.551ZM83.0945 15.3259V21.4218H84.9529C87.4815 21.4218 88.5546 20.0293 88.5546 18.4026C88.5546 15.3834 84.8378 15.3259 83.0945 15.3259Z" fill="#231F20"></path>
        <path d="M102.497 16.891L98.9199 21.4095V27.0535C98.9199 28.5939 99.0679 28.9143 99.5325 29.551H96.86C97.3246 28.9143 97.4685 28.5939 97.4685 27.0535V21.6272L93.8668 16.5172C93.3586 15.8111 92.7617 15.1733 92.0906 14.6194H95.3182C95.1742 14.8823 94.9975 14.9973 94.9975 15.3177C95.0974 15.7103 95.2643 16.0827 95.4908 16.4186L98.6033 20.744L102.147 16.1598C102.406 15.9339 102.58 15.6268 102.641 15.289C102.649 15.0573 102.599 14.8274 102.497 14.6194H104.82C103.804 15.2972 103.57 15.556 102.497 16.891Z" fill="#231F20"></path>
        <path d="M119.001 10.8239H115.424V18.6285H120.686C121.817 18.6285 122.109 18.4807 122.894 17.7536V20.3702C122.109 19.6719 122.051 19.4994 120.6 19.4994H115.424V26.2977C115.424 28.4789 115.51 28.3515 116.353 29.551H112.751C113.594 28.3597 113.68 28.4789 113.68 26.2977V13.2063C113.68 11.7522 113.68 10.8814 112.258 9.95302H123.157V12.6847C122.315 11.2593 122.195 10.8239 119.001 10.8239Z" fill="#231F20"></path>
        <path d="M132.774 29.551C133.029 29.302 133.192 28.9752 133.239 28.6226C133.218 28.3357 133.138 28.0561 133.005 27.8011L130.949 23.0115H125.653L123.622 27.7641C123.468 28.137 123.36 28.5274 123.301 28.9266C123.343 29.1595 123.442 29.3784 123.589 29.5633H120.974C121.789 29.136 122.428 28.4368 122.779 27.5875L128.704 14.1634L134.489 27.608C135.011 28.7952 135.188 28.8403 135.998 29.551H132.774ZM128.387 17.1539L126.003 22.2926H130.636L128.387 17.1539Z" fill="#231F20"></path>
        <path d="M149.138 29.551C147.683 29.551 146.696 29.058 142.683 24.063L141.146 22.1489H138.995V27.0535C138.995 28.5939 139.139 28.9143 139.604 29.551H136.931C137.396 28.9143 137.54 28.5939 137.54 27.0535V17.084C137.54 15.5436 137.396 15.2273 136.931 14.5865H140.447C143.497 14.5865 146.055 15.7778 146.055 18.3903C146.055 20.9165 143.703 21.6436 142.745 21.9886L145.438 25.2995C146.947 27.189 148.604 28.6678 149.883 28.6678C150.117 28.6678 150.376 28.6391 150.61 28.6391C150.697 28.6391 150.783 28.6678 150.783 28.7541C150.783 29.2018 150.142 29.551 149.138 29.551ZM139.012 15.3259V21.4218H140.87C143.399 21.4218 144.476 20.0293 144.476 18.4026C144.476 15.3834 140.755 15.3259 139.012 15.3259Z" fill="#231F20"></path>
        <path d="M165.371 29.551C165.58 29.3453 165.723 29.0822 165.782 28.7951C165.789 28.2461 165.761 27.6973 165.696 27.1521L165.116 18.0329L159.154 29.9864L153.546 18.2876L152.839 27.6943C152.814 27.8863 152.804 28.0799 152.81 28.2735C152.858 28.723 152.998 29.1579 153.221 29.551H151.334C152.234 28.8527 152.115 28.3597 152.292 26.2401L152.987 17.0101C153.048 16.3693 151.856 15.1493 150.931 14.5989H153.604L159.504 27.4889L164.437 17.733C165.136 16.3693 165.223 16.1105 165.223 14.5989H167.924C166.793 15.7326 166.53 16.2419 166.53 17.3264C166.53 17.5605 166.53 17.8234 166.559 18.1479L167.139 26.425C167.373 29.5592 167.579 29.095 167.924 29.5592L165.371 29.551Z" fill="#231F20"></path>
        <path d="M197.655 29.551C198.119 28.9143 198.263 28.5939 198.263 27.0535V17.084C198.263 15.5436 198.119 15.2273 197.655 14.5865H200.327C199.863 15.2273 199.719 15.5436 199.719 17.084V27.0535C199.719 28.5939 199.863 28.9143 200.327 29.551H197.655Z" fill="#231F20"></path>
        <path d="M216.704 16.9238V30.0439L205.343 17.7207V27.2301C205.343 28.6801 205.343 28.7664 205.754 29.551H204.011C204.476 28.7664 204.476 28.6801 204.476 27.2301V16.7472C203.773 15.8033 202.826 15.0679 201.737 14.6194H204.587L215.832 26.8152V16.9567C215.832 15.5026 215.832 15.4163 215.367 14.6317H217.111C216.704 15.3834 216.704 15.4697 216.704 16.9238Z" fill="#231F20"></path>
        <path d="M228.323 29.551H219.446C220.116 29.0005 220.494 28.4789 220.494 26.5318V17.6755C220.494 15.7038 220.116 15.1493 219.446 14.5989H227.788V16.6322C226.966 15.6463 226.855 15.3259 224.733 15.3259H221.913V20.9864H225.543C226.941 20.9864 226.822 20.9576 227.599 20.2593V22.4241C226.904 21.8161 226.904 21.7011 225.391 21.7011H221.913V26.503C221.913 28.2735 221.97 28.8239 224.672 28.8239C227.579 28.8239 228.508 27.5176 229.47 26.6181L228.323 29.551Z" fill="#231F20"></path>
        <path d="M235.21 29.9864C233.64 29.9957 232.102 29.5413 230.79 28.6801V26.5893C231.612 27.6943 232.508 29.2593 235.152 29.2593C236.924 29.2593 238.852 28.2447 238.852 26.3264C238.852 24.8189 237.981 23.8043 236.85 22.7855C235.016 21.1014 231.937 19.9101 231.937 17.4455C231.937 15.6751 233.45 14.1593 235.917 14.1593C236.888 14.1533 237.846 14.3831 238.709 14.8289V16.4514C238.244 15.9585 237.372 14.8864 235.629 14.8864C234.35 14.8864 233.244 15.5231 233.244 16.8006C233.244 19.1256 236.821 20.0868 238.766 22.346C239.574 23.2243 240.015 24.3779 240 25.5706C240.004 28.4789 237.537 29.9864 235.21 29.9864Z" fill="#231F20"></path>
        <path d="M194.649 10.0105L194.908 10.2734C194.975 10.3425 195.046 10.407 195.122 10.4665C195.307 10.6185 195.397 10.6924 195.397 11.136C195.346 11.5398 195.249 11.9365 195.11 12.3191L190.735 25.7719L186.554 12.0151V11.974L186.401 11.4236L186.249 11.974C186.208 12.1301 186.163 12.2862 186.118 12.4218L181.743 25.7883L177.549 12.0603L177.516 11.9576C177.431 11.7481 177.381 11.5261 177.368 11.3004C177.359 11.1381 177.384 10.9757 177.441 10.8236C177.499 10.6715 177.587 10.5331 177.701 10.4172L177.825 10.2611L178.01 10.0105H173.98L174.305 10.2857C174.444 10.4028 174.591 10.5099 174.745 10.6061C175.156 10.8855 175.419 11.058 175.929 12.66L181.385 29.8837L185.998 16.0283L190.377 29.9125L196.01 12.9763C196.561 11.2839 196.668 11.1894 197.725 10.2816L198.045 10.0064L194.649 10.0105Z" fill="#231F20"></path>
      </svg>
